<svg xmlns="http://www.w3.org/2000/svg" version="1.1" xmlns:xlink="http://www.w3.org/1999/xlink" xmlns:svgjs="http://svgjs.dev/svgjs" width="1500" height="937" viewBox="0 0 1500 937"><g transform="matrix(1,0,0,1,0,0)"><svg viewBox="0 0 512 320" data-background-color="#fbc117" preserveAspectRatio="xMidYMid meet" height="937" width="1500" xmlns="http://www.w3.org/2000/svg" xmlns:xlink="http://www.w3.org/1999/xlink"><g id="tight-bounds" transform="matrix(1,0,0,1,0,0)"><svg viewBox="0 0 512 320" height="320" width="512"><g><svg></svg></g><g><svg viewBox="0 0 512 320" height="320" width="512"><g><path d="M96 160c0-88.366 71.634-160 160-160 88.366 0 160 71.634 160 160 0 88.366-71.634 160-160 160-88.366 0-160-71.634-160-160z" fill="#fcfaf7" fill-rule="nonzero" stroke="none" stroke-width="1" stroke-linecap="butt" stroke-linejoin="miter" stroke-miterlimit="10" stroke-dasharray="" stroke-dashoffset="0" font-family="none" font-weight="none" font-size="none" text-anchor="none" style="mix-blend-mode: normal" data-fill-palette-color="tertiary"></path></g><g transform="matrix(1,0,0,1,153.6,142.77383177570093)"><svg viewBox="0 0 204.8 34.45233644859813" height="34.45233644859813" width="204.8"><g><svg viewBox="0 0 204.8 34.45233644859813" height="34.45233644859813" width="204.8"><g><svg viewBox="0 0 204.8 34.45233644859813" height="34.45233644859813" width="204.8"><g id="textblocktransform"><svg viewBox="0 0 204.8 34.45233644859813" height="34.45233644859813" width="204.8" id="textblock"><g><svg viewBox="0 0 204.8 34.45233644859813" height="34.45233644859813" width="204.8"><g transform="matrix(1,0,0,1,0,0)"><svg width="204.8" viewBox="1.1 -35.5 213.97 36" height="34.45233644859813" data-palette-color="#fbc117"><path d="M9.2 0.5Q5.2 0.5 3.15-1.78 1.1-4.05 1.1-8.3L1.1-8.3 1.1-10.3 6.3-10.3 6.3-7.9Q6.3-4.5 9.15-4.5L9.15-4.5Q10.55-4.5 11.28-5.33 12-6.15 12-8L12-8Q12-10.2 11-11.88 10-13.55 7.3-15.9L7.3-15.9Q3.9-18.9 2.55-21.33 1.2-23.75 1.2-26.8L1.2-26.8Q1.2-30.95 3.3-33.23 5.4-35.5 9.4-35.5L9.4-35.5Q13.35-35.5 15.38-33.23 17.4-30.95 17.4-26.7L17.4-26.7 17.4-25.25 12.2-25.25 12.2-27.05Q12.2-28.85 11.5-29.68 10.8-30.5 9.45-30.5L9.45-30.5Q6.7-30.5 6.7-27.15L6.7-27.15Q6.7-25.25 7.73-23.6 8.75-21.95 11.45-19.6L11.45-19.6Q14.9-16.6 16.2-14.15 17.5-11.7 17.5-8.4L17.5-8.4Q17.5-4.1 15.38-1.8 13.25 0.5 9.2 0.5L9.2 0.5ZM20.65 0L20.65-35 26.15-35 26.15-20.25 33.15-35 38.65-35 32.1-22.15 38.75 0 33 0 28.35-15.6 26.15-11.15 26.15 0 20.65 0ZM41.34 0L41.34-35 46.84-35 46.84 0 41.34 0ZM50.94 0L50.94-35 56.44-35 56.44-5 65.49-5 65.49 0 50.94 0ZM68.14 0L68.14-35 73.64-35 73.64-5 82.69-5 82.69 0 68.14 0ZM86.89 0L81.59-35 87.14-35 90.74-7.85 90.84-7.85 94.44-35 99.49-35 94.19 0 86.89 0ZM102.14 0L102.14-35 117.14-35 117.14-30 107.64-30 107.64-20.75 115.19-20.75 115.19-15.75 107.64-15.75 107.64-5 117.14-5 117.14 0 102.14 0ZM120.28 0L120.28-35 127.18-35 132.53-14.05 132.63-14.05 132.63-35 137.53-35 137.53 0 131.88 0 125.28-25.55 125.18-25.55 125.18 0 120.28 0ZM145.93 0L145.93-30 140.18-30 140.18-35 157.18-35 157.18-30 151.43-30 151.43 0 145.93 0ZM167.83 0.5Q163.83 0.5 161.73-1.78 159.63-4.05 159.63-8.3L159.63-8.3 159.63-35 165.13-35 165.13-7.9Q165.13-6.1 165.85-5.3 166.58-4.5 167.93-4.5L167.93-4.5Q169.28-4.5 170-5.3 170.73-6.1 170.73-7.9L170.73-7.9 170.73-35 176.03-35 176.03-8.3Q176.03-4.05 173.93-1.78 171.83 0.5 167.83 0.5L167.83 0.5ZM179.93 0L179.93-35 188.07-35Q192.32-35 194.28-33.02 196.22-31.05 196.22-26.95L196.22-26.95 196.22-24.8Q196.22-19.35 192.63-17.9L192.63-17.9 192.63-17.8Q194.63-17.2 195.45-15.35 196.28-13.5 196.28-10.4L196.28-10.4 196.28-4.25Q196.28-2.75 196.38-1.83 196.47-0.9 196.88 0L196.88 0 191.28 0Q190.97-0.85 190.88-1.6 190.78-2.35 190.78-4.3L190.78-4.3 190.78-10.7Q190.78-13.1 190-14.05 189.22-15 187.32-15L187.32-15 185.43-15 185.43 0 179.93 0ZM185.43-20L187.43-20Q189.07-20 189.9-20.85 190.72-21.7 190.72-23.7L190.72-23.7 190.72-26.4Q190.72-28.3 190.05-29.15 189.38-30 187.93-30L187.93-30 185.43-30 185.43-20ZM200.07 0L200.07-35 215.07-35 215.07-30 205.57-30 205.57-20.75 213.12-20.75 213.12-15.75 205.57-15.75 205.57-5 215.07-5 215.07 0 200.07 0Z" opacity="1" transform="matrix(1,0,0,1,0,0)" fill="#fbc117" class="wordmark-text-0" data-fill-palette-color="quaternary" id="text-0"></path></svg></g></svg></g></svg></g></svg></g><g></g></svg></g></svg></g></svg></g><defs></defs></svg><rect width="512" height="320" fill="none" stroke="none" visibility="hidden"></rect></g></svg></g></svg>