<?xml version="1.0" standalone="no"?>
<!DOCTYPE svg PUBLIC "-//W3C//DTD SVG 20010904//EN"
 "http://www.w3.org/TR/2001/REC-SVG-20010904/DTD/svg10.dtd">
<svg version="1.0" xmlns="http://www.w3.org/2000/svg"
 width="500.000000pt" height="500.000000pt" viewBox="0 0 500.000000 500.000000"
 preserveAspectRatio="xMidYMid meet">
<metadata>
Created by potrace 1.14, written by Peter Selinger 2001-2017
</metadata>
<g transform="translate(0.000000,500.000000) scale(0.100000,-0.100000)"
fill="#000000" stroke="none">
<path d="M0 2500 l0 -2500 2500 0 2500 0 0 2500 0 2500 -2500 0 -2500 0 0
-2500z m3245 1766 l740 -423 2 -1184 2 -1184 -737 -422 c-405 -232 -742 -423
-747 -425 -6 -2 -345 188 -753 422 l-742 425 3 1185 2 1184 740 423 c407 233
742 423 745 423 3 0 339 -191 745 -424z"/>
<path d="M1923 3958 l-563 -323 3 -329 2 -328 842 -482 c463 -264 842 -484
843 -487 0 -4 -124 -77 -275 -164 l-275 -158 -557 319 c-307 175 -563 320
-570 322 -11 3 -13 -61 -11 -323 l3 -327 567 -324 567 -323 570 325 571 325 0
327 -1 327 -222 127 c-122 69 -505 288 -850 486 l-628 360 280 160 280 160
558 -320 c307 -176 564 -322 571 -325 9 -4 12 64 12 323 l0 329 -560 320
c-308 176 -568 321 -578 323 -9 1 -270 -143 -579 -320z"/>
</g>
</svg>
